# xmcd CD database file
#
# Track frame offsets:
#	150
#	20497
#	37374
#	56233
#	76150
#	93397
#	111308
#	128791
#	142996
#	160203
#	169140
#	183227
#
# Disc length: 2573 seconds
#
# Revision: 0
# Processed by: cddbd v1.5.2PL0 Copyright (c) Steve Scherf et al.
# Submitted via: CDex 1.51
#
DISCID=a20a0b0c
DTITLE=Bernard Santacruz - Lenox Avenue
DYEAR=2008
DGENRE=Jazz
TTITLE0=Lenox Avenue
TTITLE1=Nadja
TTITLE2=Koniec
TTITLE3=Nanna d'Amore
TTITLE4=Léo S.
TTITLE5=Frank L.
TTITLE6=Boni
TTITLE7=Hami S.
TTITLE8=Dance
TTITLE9=Fugue
TTITLE10=Alice S.
TTITLE11=White Horses
EXTD=YEAR: 2008
EXTT0=
EXTT1=
EXTT2=
EXTT3=
EXTT4=
EXTT5=
EXTT6=
EXTT7=
EXTT8=
EXTT9=
EXTT10=
EXTT11=
PLAYORDER=
